HIERARCHY
ROOT joint_Root
{
	OFFSET 0.0 0.0 0.0
	CHANNELS 6 Xposition Yposition Zposition Zrotation Xrotation Yrotation 
	JOINT Hips
	{
		OFFSET 4.5925 91.4895 -427.239
		CHANNELS 6 Xposition Yposition Zposition Zrotation Xrotation Yrotation 
		JOINT Spine
		{
			OFFSET 15.7357 0.0 0.0
			CHANNELS 6 Xposition Yposition Zposition Zrotation Xrotation Yrotation 
			JOINT Chest
			{
				OFFSET 8.98455 -0.406207 0.0
				CHANNELS 6 Xposition Yposition Zposition Zrotation Xrotation Yrotation 
				JOINT Neck
				{
					OFFSET 16.3773 0.0 0.0
					CHANNELS 6 Xposition Yposition Zposition Zrotation Xrotation Yrotation 
					JOINT Head
					{
						OFFSET 6.45672 0.0 0.0
						CHANNELS 6 Xposition Yposition Zposition Zrotation Xrotation Yrotation 
						End Site
						{
							OFFSET 0.0 0.0 0.0
						}
					}
				}
				JOINT Shoulder_L
				{
					OFFSET 12.9942 -0.242716 4.98039
					CHANNELS 6 Xposition Yposition Zposition Zrotation Xrotation Yrotation 
					JOINT UpperArm_L
					{
						OFFSET 5.34809 0.0 0.0
						CHANNELS 6 Xposition Yposition Zposition Zrotation Xrotation Yrotation 
						JOINT LowerArm_L
						{
							OFFSET 24.3286 1.87007e-05 0.0
							CHANNELS 6 Xposition Yposition Zposition Zrotation Xrotation Yrotation 
							JOINT Hand_L
							{
								OFFSET 22.2916 0.0 0.0
								CHANNELS 6 Xposition Yposition Zposition Zrotation Xrotation Yrotation 
								End Site
								{
									OFFSET 0.0 0.0 0.0
								}
							}
						}
					}
				}
				JOINT Shoulder_R
				{
					OFFSET 12.9945 -0.242716 -4.98039
					CHANNELS 6 Xposition Yposition Zposition Zrotation Xrotation Yrotation 
					JOINT UpperArm_R
					{
						OFFSET -5.34813 0.0 0.0
						CHANNELS 6 Xposition Yposition Zposition Zrotation Xrotation Yrotation 
						JOINT LowerArm_R
						{
							OFFSET -24.3289 0.000322201 0.0
							CHANNELS 6 Xposition Yposition Zposition Zrotation Xrotation Yrotation 
							JOINT Hand_R
							{
								OFFSET -22.2915 -0.000108084 0.0
								CHANNELS 6 Xposition Yposition Zposition Zrotation Xrotation Yrotation 
								End Site
								{
									OFFSET 0.0 0.0 0.0
								}
							}
						}
					}
				}
			}
		}
		JOINT UpperLeg_L
		{
			OFFSET -2.19248 -6.46944 0.0
			CHANNELS 6 Xposition Yposition Zposition Zrotation Xrotation Yrotation 
			JOINT LowerLeg_L
			{
				OFFSET 39.0811 0.0 -1.23785e-05
				CHANNELS 6 Xposition Yposition Zposition Zrotation Xrotation Yrotation 
				JOINT Foot_L
				{
					OFFSET 40.9854 0.0 -1.26872e-05
					CHANNELS 6 Xposition Yposition Zposition Zrotation Xrotation Yrotation 
					JOINT Toes_L
					{
						OFFSET 11.7543 0.0 0.0
						CHANNELS 6 Xposition Yposition Zposition Zrotation Xrotation Yrotation 
						End Site
						{
							OFFSET 0.0 0.0 0.0
						}
					}
				}
			}
		}
		JOINT UpperLeg_R
		{
			OFFSET -2.19251 6.46944 0.0
			CHANNELS 6 Xposition Yposition Zposition Zrotation Xrotation Yrotation 
			JOINT LowerLeg_R
			{
				OFFSET -39.0811 -0.00228153 -0.0401928
				CHANNELS 6 Xposition Yposition Zposition Zrotation Xrotation Yrotation 
				JOINT Foot_R
				{
					OFFSET -40.9854 0.0 0.0
					CHANNELS 6 Xposition Yposition Zposition Zrotation Xrotation Yrotation 
					JOINT Toes_R
					{
						OFFSET -11.7543 0.0 0.0
						CHANNELS 6 Xposition Yposition Zposition Zrotation Xrotation Yrotation 
						End Site
						{
							OFFSET 0.0 0.0 0.0
						}
					}
				}
			}
		}
	}
}
MOTION
Frames:	8
Frame Time:	0.0333333
0.000000 0.000000 0.000000 0.000000 0.000000 -0.000000 -2.198260 90.773000 0.947332 89.582600 -9.583380 11.859400 15.735700 0.000005 -0.000001 75.328600 81.963100 -73.072600 8.984550 -0.406207 -0.000000 7.882540 -4.051920 4.788290 16.377300 -0.000001 -0.000001 27.505100 -13.384900 4.468470 6.456720 -0.000001 -0.000000 18.004500 -16.231700 9.875540 12.994200 -0.242716 4.980390 -88.664200 -3.467720 -68.916700 5.348090 -0.000007 -0.000001 -47.187600 -53.579000 -57.735300 24.328600 0.000019 0.000005 4.758320 19.902100 -13.740500 22.291600 -0.000001 0.000005 18.751600 4.998610 7.348850 12.994500 -0.242716 -4.980390 87.825800 10.028700 -77.701300 -5.348130 -0.000001 -0.000004 -60.009900 27.145500 -4.833850 -24.328900 0.000322 -0.000009 1.054930 4.450510 -13.362300 -22.291500 -0.000108 -0.000004 12.364900 5.372940 -2.077650 -2.192480 -6.469440 -0.000000 -171.861000 -16.465800 4.536650 39.081100 -0.000007 -0.000012 -0.179462 0.317788 29.454600 40.985400 -0.000006 -0.000013 -1.451370 4.428430 -70.857800 11.754300 -0.000000 0.000003 -0.000057 -0.000637 -16.602200 -2.192510 6.469440 -0.000001 175.199000 15.297900 -176.988000 -39.081100 -0.002282 -0.040193 -0.155481 0.274805 30.019600 -40.985400 0.000008 0.000006 4.406650 14.097200 -71.433000 -11.754300 -0.000006 -0.000006 -0.002341 -0.032903 -17.911100
0.000000 0.000000 0.000000 0.000000 0.000000 -0.000000 -2.185000 90.776400 0.992326 89.611100 -8.899480 11.924600 15.735700 0.000005 -0.000001 75.963500 81.977400 -73.768700 8.984550 -0.406207 -0.000000 7.891850 -3.873010 4.653760 16.377300 -0.000001 -0.000001 27.457500 -13.501300 4.649740 6.456720 -0.000001 -0.000000 17.967400 -16.512000 10.133600 12.994200 -0.242716 4.980390 -88.670000 -3.433640 -68.810700 5.348090 -0.000007 -0.000001 -48.360100 -53.568400 -58.445500 24.328600 0.000019 0.000005 4.692570 20.233800 -13.351400 22.291600 -0.000001 0.000005 18.824100 4.990340 7.524060 12.994500 -0.242716 -4.980390 87.841100 10.025600 -77.781600 -5.348130 -0.000001 -0.000004 -60.310600 27.661800 -5.082660 -24.328900 0.000322 -0.000009 1.017380 4.141450 -13.828700 -22.291500 -0.000108 -0.000004 12.353900 5.372440 -2.062420 -2.192480 -6.469440 -0.000000 -171.978000 -16.042600 4.517810 39.081100 -0.000007 -0.000012 -0.179807 0.318626 29.437100 40.985400 -0.000006 -0.000013 -1.373860 4.641090 -70.831700 11.754300 -0.000000 0.000003 -0.000063 -0.000687 -16.604200 -2.192510 6.469440 -0.000001 175.011000 15.764400 -176.749000 -39.081100 -0.002282 -0.040193 -0.157582 0.279289 29.944100 -40.985400 0.000008 0.000006 4.329390 13.941600 -71.469800 -11.754300 -0.000006 -0.000006 -0.002349 -0.033004 -17.915200
0.000000 0.000000 0.000000 0.000000 0.000000 -0.000000 -2.193520 90.770200 1.026760 89.658000 -8.076520 11.997000 15.735700 0.000005 -0.000001 76.710700 82.013900 -74.603300 8.984550 -0.406207 -0.000000 7.861370 -3.654540 4.462900 16.377300 -0.000001 -0.000001 27.384800 -13.560300 4.704940 6.456720 -0.000001 -0.000000 17.870600 -16.674400 10.241400 12.994200 -0.242716 4.980390 -88.670500 -3.424010 -68.764900 5.348090 -0.000007 -0.000001 -49.272400 -53.225500 -59.684300 24.328600 0.000019 0.000005 4.717870 20.242100 -13.416000 22.291600 -0.000001 0.000005 18.635100 4.989940 7.532570 12.994500 -0.242716 -4.980390 87.860500 10.032100 -77.896000 -5.348130 -0.000001 -0.000004 -60.674600 28.194100 -5.348910 -24.328900 0.000322 -0.000009 0.993357 3.873360 -14.410700 -22.291500 -0.000108 -0.000004 12.285100 5.373130 -2.083590 -2.192480 -6.469440 -0.000000 -172.123000 -15.508000 4.426150 39.081100 -0.000007 -0.000012 -0.179310 0.317167 29.481800 40.985400 -0.000006 -0.000013 -1.293050 4.914660 -70.802800 11.754300 -0.000000 0.000003 -0.000060 -0.000660 -16.603100 -2.192510 6.469440 -0.000001 174.797000 16.310100 -176.512000 -39.081100 -0.002282 -0.040193 -0.161067 0.285564 29.924600 -40.985400 0.000008 0.000006 4.248110 13.706700 -71.541800 -11.754300 -0.000006 -0.000006 -0.002527 -0.035133 -18.001800
0.000000 0.000000 0.000000 0.000000 0.000000 -0.000000 -2.221220 90.772100 1.053270 89.717000 -7.116080 12.083300 15.735700 0.000005 -0.000001 77.456500 82.072600 -75.463800 8.984550 -0.406207 -0.000000 7.783720 -3.429030 4.215690 16.377300 -0.000001 -0.000001 27.371300 -13.477600 4.539560 6.456720 -0.000001 -0.000000 17.723900 -16.696100 10.353700 12.994200 -0.242716 4.980390 -88.642200 -3.493940 -68.746600 5.348090 -0.000007 -0.000001 -49.807700 -52.453300 -61.305900 24.328600 0.000019 0.000005 4.844160 19.972600 -13.934500 22.291600 -0.000001 0.000005 18.385300 4.993360 7.460090 12.994500 -0.242716 -4.980390 87.877300 10.070900 -78.032500 -5.348130 -0.000001 -0.000004 -61.003100 28.887500 -5.721570 -24.328900 0.000322 -0.000009 0.944343 3.540580 -14.960500 -22.291500 -0.000108 -0.000004 12.255400 5.377160 -2.209220 -2.192480 -6.469440 -0.000000 -172.271000 -14.975500 4.356630 39.081100 -0.000007 -0.000012 -0.176320 0.311877 29.482000 40.985400 -0.000006 -0.000013 -1.193780 5.267240 -70.739000 11.754300 -0.000000 0.000003 -0.000067 -0.000726 -16.605600 -2.192510 6.469440 -0.000001 174.555000 16.958200 -176.227000 -39.081100 -0.002282 -0.040193 -0.161608 0.287204 29.864200 -40.985400 0.000008 0.000006 4.182650 13.485800 -71.601700 -11.754300 -0.000006 -0.000006 -0.002253 -0.031838 -17.867700
0.000000 0.000000 0.000000 0.000000 0.000000 -0.000000 -2.257290 90.761100 1.086100 89.768000 -6.038270 12.217700 15.735700 0.000005 -0.000001 78.114500 82.114300 -76.241100 8.984550 -0.406207 -0.000000 7.732330 -3.235680 3.962490 16.377300 -0.000001 -0.000001 27.324000 -13.356700 4.312350 6.456720 -0.000001 -0.000000 17.499900 -16.574700 10.179000 12.994200 -0.242716 4.980390 -88.614000 -3.568620 -68.757700 5.348090 -0.000007 -0.000001 -49.596300 -51.388700 -62.858600 24.328600 0.000019 0.000005 5.158250 19.565200 -15.086600 22.291600 -0.000001 0.000005 18.164500 5.008100 7.145970 12.994500 -0.242716 -4.980390 87.907000 10.070600 -78.195200 -5.348130 -0.000001 -0.000004 -61.283000 29.575500 -6.266680 -24.328900 0.000322 -0.000009 0.949902 3.415690 -15.568000 -22.291500 -0.000108 -0.000004 12.245200 5.376590 -2.191480 -2.192480 -6.469440 -0.000000 -172.425000 -14.262400 4.272810 39.081100 -0.000007 -0.000012 -0.176326 0.310953 29.555700 40.985400 -0.000006 -0.000013 -1.104120 5.634090 -70.702100 11.754300 -0.000000 0.000003 -0.000061 -0.000673 -16.603600 -2.192510 6.469440 -0.000001 174.297000 17.685800 -175.886000 -39.081100 -0.002282 -0.040193 -0.163092 0.289909 29.853900 -40.985400 0.000008 0.000006 4.109060 13.173300 -71.699400 -11.754300 -0.000006 -0.000006 -0.002274 -0.032091 -17.878000
0.000000 0.000000 0.000000 0.000000 0.000000 -0.000000 -2.297130 90.758800 1.108870 89.841700 -4.913460 12.343000 15.735700 0.000005 -0.000001 78.808200 82.177500 -77.055100 8.984550 -0.406207 -0.000000 7.638400 -3.026560 3.705390 16.377300 -0.000001 -0.000001 27.318000 -13.175000 4.079990 6.456720 -0.000001 -0.000000 17.314100 -16.317900 9.777090 12.994200 -0.242716 4.980390 -88.579400 -3.664660 -68.793500 5.348090 -0.000007 -0.000001 -49.064800 -50.048800 -64.531100 24.328600 0.000019 0.000005 5.582190 18.848100 -16.832700 22.291600 -0.000001 0.000005 17.894400 5.031010 6.652250 12.994500 -0.242716 -4.980390 87.943200 10.060900 -78.382900 -5.348130 -0.000001 -0.000004 -61.407000 30.355900 -6.922450 -24.328900 0.000322 -0.000009 0.929669 3.207200 -16.191500 -22.291500 -0.000108 -0.000004 12.376400 5.377840 -2.231130 -2.192480 -6.469440 -0.000000 -172.607000 -13.578300 4.202790 39.081100 -0.000007 -0.000012 -0.175392 0.309071 29.574400 40.985400 -0.000006 -0.000013 -1.015150 5.988610 -70.631200 11.754300 -0.000000 0.000003 -0.000057 -0.000637 -16.602200 -2.192510 6.469440 -0.000001 174.023000 18.353000 -175.534000 -39.081100 -0.002282 -0.040193 -0.167689 0.298518 29.804300 -40.985400 0.000008 0.000006 4.002450 12.801500 -71.774300 -11.754300 -0.000006 -0.000006 -0.002401 -0.033630 -17.940700
0.000000 0.000000 0.000000 0.000000 0.000000 -0.000000 -2.318200 90.745600 1.135290 89.926800 -3.754010 12.491400 15.735700 0.000005 -0.000001 79.697400 82.238800 -78.093200 8.984550 -0.406207 -0.000000 7.553670 -2.768340 3.388270 16.377300 -0.000001 -0.000001 27.353100 -12.873000 3.878990 6.456720 -0.000001 -0.000000 17.169200 -16.096400 9.385230 12.994200 -0.242716 4.980390 -88.514700 -3.833870 -68.803600 5.348090 -0.000007 -0.000001 -48.875900 -48.539700 -66.889000 24.328600 0.000019 0.000005 5.929720 17.524900 -19.031700 22.291600 -0.000001 0.000005 17.703700 5.061550 5.979810 12.994500 -0.242716 -4.980390 87.982100 10.072700 -78.610000 -5.348130 -0.000001 -0.000004 -61.518300 30.765800 -7.628780 -24.328900 0.000322 -0.000009 0.957737 3.190980 -16.733900 -22.291500 -0.000108 -0.000004 12.307800 5.385630 -2.476260 -2.192480 -6.469440 -0.000000 -172.832000 -12.767800 4.105680 39.081100 -0.000007 -0.000012 -0.174860 0.307172 29.651300 40.985400 -0.000006 -0.000013 -0.925048 6.330910 -70.582200 11.754300 -0.000000 0.000003 -0.000064 -0.000700 -16.604600 -2.192510 6.469440 -0.000001 173.729000 19.040200 -175.194000 -39.081100 -0.002282 -0.040193 -0.166774 0.296668 29.825300 -40.985400 0.000008 0.000006 3.898860 12.403000 -71.877800 -11.754300 -0.000006 -0.000006 -0.002152 -0.030604 -17.817600
0.000000 0.000000 0.000000 0.000000 0.000000 -0.000000 -2.353100 90.734100 1.168320 89.972000 -2.546430 12.736900 15.735700 0.000005 -0.000001 80.568600 82.258400 -79.104100 8.984550 -0.406207 -0.000000 7.547610 -2.530140 3.093410 16.377300 -0.000001 -0.000001 27.304500 -12.586800 3.531450 6.456720 -0.000001 -0.000000 17.178400 -15.755800 9.043050 12.994200 -0.242716 4.980390 -88.447700 -4.018590 -68.858900 5.348090 -0.000007 -0.000001 -47.923600 -46.914200 -69.028100 24.328600 0.000019 0.000005 6.064470 15.680500 -21.460900 22.291600 -0.000001 0.000005 17.200800 5.089830 5.345220 12.994500 -0.242716 -4.980390 88.038700 10.044100 -78.891300 -5.348130 -0.000001 -0.000004 -61.518500 31.276100 -8.385110 -24.328900 0.000322 -0.000009 0.967695 3.090430 -17.414000 -22.291500 -0.000108 -0.000004 12.446400 5.386880 -2.515820 -2.192480 -6.469440 -0.000000 -172.981000 -11.968800 4.126100 39.081100 -0.000007 -0.000012 -0.174418 0.305454 29.727100 40.985400 -0.000006 -0.000013 -0.825580 6.726640 -70.542500 11.754300 -0.000000 0.000003 -0.000055 -0.000616 -16.601400 -2.192510 6.469440 -0.000001 173.371000 19.871200 -174.670000 -39.081100 -0.002282 -0.040193 -0.166865 0.297284 29.787300 -40.985400 0.000008 0.000006 3.814350 12.113200 -71.978600 -11.754300 -0.000006 -0.000006 -0.002196 -0.031145 -17.839600
